# AST/ASF file generated using VICON BodyLanguage
# -----------------------------------------------
:version 1.10
:name VICON
:units
  mass 1.0
  length 0.45
  angle deg
:documentation
   .ast/.asf automatically generated from VICON data using
   VICON BodyBuilder and BodyLanguage model FoxedUp or BRILLIANT.MOD
:root
   order TX TY TZ RX RY RZ
   axis XYZ
   position 0 0 0  
   orientation 0 0 0 
:bonedata
  begin
     id 1 
     name lhipjoint
     direction 0.671379 -0.66392 0.329334 
     length 2.38647 
     axis 0 0 0  XYZ
  end
  begin
     id 2 
     name lfemur
     direction 0.34202 -0.939693 0  
     length 6.48179  
     axis 0 0 20  XYZ
    dof rx ry rz
    limits (-160.0 20.0)
           (-70.0 70.0)
           (-60.0 70.0)
  end
  begin
     id 3 
     name ltibia
     direction 0.34202 -0.939693 0   
     length 6.86524   
     axis 0 0 20   XYZ
    dof rx
    limits (-10.0 170.0)
  end
  begin
     id 4 
     name lfoot
     direction 0.204886 -0.562919 0.800715   
     length 1.73031   
     axis -90 7.62852e-016 20   XYZ
    dof rx rz
    limits (-45.0 90.0)
           (-70.0 20.0)
  end
  begin
     id 5 
     name ltoes
     direction 1.53548e-011 -4.21841e-011 1   
     length 0.828161   
     axis -90 7.62852e-016 20   XYZ
    dof rx
    limits (-90.0 20.0)
  end
  begin
     id 6 
     name rhipjoint
     direction -0.662732 -0.670855 0.332775   
     length 2.3618  
     axis 0 0 0  XYZ 
  end
  begin
     id 7 
     name rfemur
     direction -0.34202 -0.939693 0   
     length 6.3025   
     axis 0 0 -20   XYZ
    dof rx ry rz
    limits (-160.0 20.0)
           (-70.0 70.0)
           (-70.0 60.0)
  end
  begin
     id 8 
     name rtibia
     direction -0.34202 -0.939693 0   
     length 6.8732   
     axis 0 0 -20   XYZ
    dof rx
    limits (-10.0 170.0)
 end
 begin
     id 9 
     name rfoot
     direction -0.173856 -0.477665 0.861168   
     length 1.54784  
     axis -90 -7.62852e-016 -20   XYZ
    dof rx rz
    limits (-45.0 90.0)
           (-20.0 70.0)
  end
  begin
     id 10 
     name rtoes
     direction -1.53562e-011 -4.21802e-011 1   
     length 0.759618   
     axis -90 -7.62852e-016 -20   XYZ
    dof rx
    limits (-90.0 20.0)
  end
  begin
     id 11 
     name lowerback
     direction -0.0278357 0.999497 -0.0151789   
     length 1.97203   
     axis 0 0 0   XYZ
    dof rx ry rz
    limits (-20.0 45.0)
           (-30.0 30.0)
           (-30.0 30.0)
  end
  begin
     id 12 
     name upperback
     direction -0.00360622 0.997542 0.0699804   
     length 1.94709   
     axis 0 0 0   XYZ
    dof rx ry rz
    limits (-20.0 45.0)
           (-30.0 30.0)
           (-30.0 30.0)
  end
  begin
     id 13 
     name thorax
     direction 0.00907706 0.997048 0.0762461   
     length 1.95722   
     axis 0 0 0   XYZ
    dof rx ry rz
    limits (-20.0 45.0)
           (-30.0 30.0)
           (-30.0 30.0)
  end
  begin
     id 14 
     name lowerneck
     direction -0.0481835 0.99872 -0.0153927   
     length 1.63078   
     axis 0 0 0   XYZ
    dof rx ry rz
    limits (-20.0 45.0)
           (-30.0 30.0)
           (-30.0 30.0)
  end
  begin
     id 15 
     name upperneck
     direction 0.0859716 0.979226 -0.183644   
     length 1.62591   
     axis 0 0 0   XYZ
    dof rx ry rz
    limits (-20.0 45.0)
           (-30.0 30.0)
           (-30.0 30.0)
  end
  begin
     id 16
     name head
     direction 0.0324821 0.997629 -0.0606773  
     length 1.64811  
     axis 0 0 0   XYZ
    dof rx ry rz
    limits (-20.0 45.0)
           (-30.0 30.0)
           (-30.0 30.0)
  end
  begin
     id 17 
     name lclavicle
     direction 0.939609 0.311019 0.142835  
     length 3.70647  
     axis 0 0 0   XYZ
    dof ry rz
    limits (-20.0 10.0)
           (0.0 20.0)
  end
  begin
     id 18 
     name lhumerus
     direction 1 -4.48963e-011 -1.59838e-027   
     length 4.59207   
     axis 180 -30 -90   XYZ
    dof rx ry rz
    limits (-60.0 90.0)
           (-90.0 90.0)
           (-90.0 90.0)
  end
  begin
     id 19
     name lradius
     direction 1 -4.48957e-011 -1.3483e-026   
     length 2.98109   
     axis 180 -30 -90   XYZ
    dof rx
    limits (-10.0 170.0)
  end
  begin
     id 20
     name lwrist
     direction 1 -4.48954e-011 -3.11579e-026   
     length 1.49055   
     axis 2.00652e-014 90 90   XYZ
    dof ry
    limits (-180.0 0.0)
 end
  begin
     id 21 
     name lhand
     direction 1 -4.4911e-011 -6.23158e-026   
     length 0.480203   
     axis 3.97628e-014 90 90   XYZ
    dof rx rz
    limits (-90.0 90.0)
           (-45.0 45.0)
  end
  begin
     id 22 
     name lfingers
     direction 1 -4.48893e-011 -1.24632e-025   
     length 0.387152   
     axis 7.95256e-014 90 90   XYZ
    dof rx
    limits (0.0 90.0)
  end
  begin
     id 23
     name lthumb
     direction 0.707107 -6.35013e-011 0.707107   
     length 0.555875   
     axis -90 45 2.85299e-015   XYZ
    dof rx rz
    limits (-45.0 45.0)
           (-45.0 45.0)
  end
  begin
     id 24 
     name rclavicle
     direction -0.950396 0.30392 0.0661859   
     length 3.70894  
     axis 0 0 0   XYZ 
    dof ry rz
    limits (-10.0 20.0)
           (-20.0 0.0)
  end
  begin
     id 25 
     name rhumerus
     direction -1 -4.48957e-011 -2.96677e-027  
     length 4.76508   
     axis 180 30 90   XYZ
    dof rx ry rz
    limits (-90.0 60.0)
           (-90.0 90.0)
           (-90.0 90.0)
  end
  begin
     id 26 
     name rradius
     direction -1 -4.48974e-011 -1.44501e-026   
     length 2.78902   
     axis 180 30 90   XYZ
    dof rx
    limits (-10.0 170.0)
  end
  begin
     id 27 
     name rwrist
     direction -1 -4.48978e-011 -3.11579e-026   
     length 1.39451   
     axis 2.00652e-014 -90 -90   XYZ
    dof ry
    limits (-180.0 0.0)
  end
  begin
     id 28
     name rhand
     direction -1 -4.48956e-011 -6.23158e-026   
     length 0.721303   
     axis 3.97628e-014 -90 -90   XYZ
    dof rx rz
    limits (-90.0 90.0)
           (-45.0 45.0)
  end
  begin
     id 29
     name rfingers
     direction -1 -4.4899e-011 -1.24632e-025   
     length 0.581533   
     axis 7.95256e-014 -90 -90   XYZ
    dof rx
    limits (0.0 90.0)
  end
  begin
     id 30
     name rthumb
     direction -0.707107 -6.34911e-011 0.707107   
     length 0.834968   
     axis -90 -45 -2.85299e-015   XYZ
    dof rx rz
    limits (-45.0 45.0)
           (-45.0 45.0)
  end
:hierarchy
  begin
    root lhipjoint rhipjoint lowerback
    lhipjoint lfemur
    lfemur ltibia
    ltibia lfoot
    lfoot ltoes
    rhipjoint rfemur
    rfemur rtibia
    rtibia rfoot
    rfoot rtoes
    lowerback upperback
    upperback thorax
    thorax lowerneck lclavicle rclavicle
    lowerneck upperneck
    upperneck head
    lclavicle lhumerus
    lhumerus lradius
    lradius lwrist
    lwrist lhand lthumb
    lhand lfingers
    rclavicle rhumerus
    rhumerus rradius
    rradius rwrist
    rwrist rhand rthumb
    rhand rfingers
  end

#!OML:ASF I:\salsa\salsa 7_09\Patient 1\Session 1\dancerfemale.ASF
:FULLY-SPECIFIED
:DEGREES
368
root 16.5342 15.6689 1.58731 -32.5761 -74.119 31.5442
lowerback 12.2716 -0.921853 -6.61446
upperback -3.35508 -2.73266 -3.39238
thorax -10.4442 -1.04402 0.630204
lowerneck -0.435898 -6.73203 -11.8957
upperneck 2.39338 -9.57402 16.5061
head 2.16727 -4.75975 6.68943
rclavicle 1.87603e-015 1.96797e-014
rhumerus -30.1655 -19.8499 -69.5527
rradius 73.7691
rwrist 3.7873
rhand -9.5709 47.3861
rfingers 7.12502
rthumb 16.3968 18.0591
lclavicle 1.87603e-015 1.96797e-014
lhumerus -32.7801 -17.3951 105.124
lradius 87.9304
lwrist -37.7941
lhand -21.1407 38.399
lfingers 7.12502
lthumb 5.23853 68.3142
rfemur -32.8376 -8.74167 10.628
rtibia 44.1698
rfoot -15.7829 -11.0133
rtoes -10.4349
lfemur -7.07087 0.251227 -34.7291
ltibia 32.1131
lfoot -25.4903 -12.6422
ltoes -19.9933
369
root 16.3732 15.6991 1.57517 -31.7346 -73.6387 30.5504
lowerback 12.0271 -1.33956 -7.16142
upperback -3.25636 -3.34528 -3.36355
thorax -10.127 -1.31387 1.0823
lowerneck -0.459381 -6.53708 -12.0285
upperneck 2.61217 -9.3647 16.9392
head 2.23164 -4.65224 6.85901
rclavicle 4.37326e-015 9.14409e-015
rhumerus -29.5844 -19.2685 -68.8904
rradius 75.1099
rwrist 3.13152
rhand -9.11424 47.4116
rfingers 7.12502
rthumb 16.8365 18.1215
lclavicle 4.37326e-015 9.14409e-015
lhumerus -32.6071 -17.3951 105.516
lradius 86.5977
lwrist -38.2501
lhand -21.433 37.5535
lfingers 7.12502
lthumb 4.95622 67.4756
rfemur -31.9699 -8.22647 10.4495
rtibia 40.4789
rfoot -15.9905 -11.9655
rtoes -12.9292
lfemur -5.63917 -0.168758 -34.5137
ltibia 30.9584
lfoot -25.0077 -13.0211
ltoes -18.963
370
root 16.1961 15.7103 1.55882 -32.3922 -73.0414 30.6763
lowerback 12.058 -1.56882 -8.10651
upperback -3.03767 -3.80625 -3.48919
thorax -9.82982 -1.49943 1.56031
lowerneck -0.501028 -6.45915 -11.7333
upperneck 2.87764 -9.30754 17.0283
head 2.29679 -4.61706 6.83768
rclavicle 1.64246e-014 -1.55052e-014
rhumerus -29.0484 -19.2709 -68.2443
rradius 76.1792
rwrist 2.8954
rhand -8.65921 47.7198
rfingers 7.12502
rthumb 17.2745 18.4676
lclavicle 1.64246e-014 -1.55052e-014
lhumerus -32.6936 -18.0694 106.196
lradius 85.1
lwrist -37.5379
lhand -23.1781 37.9103
lfingers 7.12502
lthumb 3.27107 67.8649
rfemur -30.7213 -7.74874 9.88369
rtibia 37.6487
rfoot -14.862 -13.3912
rtoes -13.306
lfemur -3.64918 -0.487926 -34.6442
ltibia 29.6923
lfoot -24.6484 -13.0445
ltoes -20.2089
371
root 16.0071 15.7153 1.54448 -34.3175 -72.281 32.371
lowerback 11.7019 -1.75906 -9.50299
upperback -2.88117 -4.25994 -3.75872
thorax -9.35081 -1.67672 2.10757
lowerneck -0.747823 -6.41333 -11.4214
upperneck 3.40956 -9.30306 16.9882
head 2.47445 -4.59342 6.75942
rclavicle 7.77e-014 6.75868e-015
rhumerus -28.2405 -19.7847 -67.8291
rradius 77.0933
rwrist 3.13081
rhand -7.70861 47.9201
rfingers 7.12502
rthumb 18.1892 18.7505
lclavicle 7.77e-014 6.75868e-015
lhumerus -32.9263 -19.3182 107.177
lradius 83.3305
lwrist -34.9874
lhand -26.906 39.115
lfingers 7.12502
lthumb -0.329315 69.0945
rfemur -29.8138 -7.24929 8.8156
rtibia 35.6824
rfoot -14.5024 -14.4431
rtoes -13.318
lfemur -1.8997 -0.774048 -35.3207
ltibia 28.4272
lfoot -24.2439 -13.0438
ltoes -21.6558
372
root 15.8217 15.7146 1.52622 -36.1065 -71.735 34.0136
lowerback 11.4299 -1.99327 -10.7426
upperback -2.83851 -4.75064 -3.9686
thorax -9.0343 -1.87415 2.63233
lowerneck -0.937892 -6.24146 -11.3425
upperneck 3.97386 -9.14151 17.0842
head 2.6466 -4.4944 6.77638
rclavicle 3.45388e-015 -3.73715e-014
rhumerus -27.1361 -19.8678 -67.6985
rradius 77.6912
rwrist 3.18261
rhand -6.56077 48.0452
rfingers 7.12502
rthumb 19.2932 18.9822
lclavicle 3.45388e-015 -3.73715e-014
lhumerus -32.2671 -18.0566 106.545
lradius 81.8259
lwrist -38.4609
lhand -23.2118 38.1697
lfingers 7.12502
lthumb 3.23854 68.1249
rfemur -29.1947 -6.83241 8.03806
rtibia 34.5278
rfoot -13.6182 -15.2667
rtoes -11.7472
lfemur -0.452153 -0.884149 -35.8621
ltibia 27.4427
lfoot -23.6939 -13.1755
ltoes -21.5653
373
root 15.639 15.7148 1.50993 -36.5524 -71.7077 34.3908
lowerback 11.1509 -2.31059 -11.2421
upperback -2.93576 -5.22148 -3.98972
thorax -8.88988 -2.08208 2.94541
lowerneck -1.00229 -5.96441 -11.2555
upperneck 4.50314 -8.83142 17.0536
head 2.75886 -4.32904 6.76652
rclavicle 2.2413e-014 2.38542e-015
rhumerus -25.9639 -19.2036 -67.7674
rradius 78.0427
rwrist 2.94903
rhand -5.67981 48.0769
rfingers 7.12502
rthumb 20.1401 19.1009
lclavicle 2.2413e-014 2.38542e-015
lhumerus -31.9115 -17.048 106.189
lradius 80.0882
lwrist -39.4878
lhand -22.3621 36.5618
lfingers 7.12502
lthumb 4.05909 66.5029
rfemur -28.7528 -6.56884 8.1674
rtibia 33.9062
rfoot -13.2575 -16.1323
rtoes -9.27587
lfemur 0.570384 -0.715694 -35.7221
ltibia 26.9029
lfoot -23.4208 -13.3584
ltoes -20.994
374
root 15.4481 15.7179 1.5036 -35.9455 -72.3119 34.0228
lowerback 10.4714 -2.57577 -11.1061
upperback -3.23141 -5.46149 -3.80212
thorax -8.78015 -2.19729 3.07318
lowerneck -0.997226 -5.71575 -10.8978
upperneck 5.08514 -8.53966 16.5663
head 2.84597 -4.17634 6.5656
rclavicle 6.05796e-014 -2.66371e-014
rhumerus -24.7672 -18.2088 -67.8156
rradius 78.1809
rwrist 2.75909
rhand -5.20676 47.7832
rfingers 7.12502
rthumb 20.5947 18.8557
lclavicle 6.05796e-014 -2.66371e-014
lhumerus -31.9295 -16.226 106.135
lradius 78.4597
lwrist -40.1579
lhand -22.3157 36.2495
lfingers 7.12502
lthumb 4.10396 66.1897
rfemur -28.5646 -6.42804 9.14493
rtibia 33.5591
rfoot -12.6223 -16.4438
rtoes -7.67781
lfemur 0.931823 -0.366223 -35.0386
ltibia 26.9731
lfoot -23.5201 -13.3059
ltoes -20.7777
375
root 15.2489 15.7222 1.50014 -34.9722 -73.659 33.4193
lowerback 9.58203 -2.65344 -10.5857
upperback -3.65439 -5.35782 -3.37627
thorax -8.73414 -2.15119 3.18068
lowerneck -0.984201 -5.44732 -10.6744
upperneck 5.68758 -8.21759 16.0949
head 2.94312 -4.01109 6.39481
rclavicle -2.73826e-014 3.89618e-014
rhumerus -23.5413 -17.0256 -67.8082
rradius 78.0444
rwrist 2.65212
rhand -4.96365 47.2844
rfingers 7.12502
rthumb 20.8283 18.3824
lclavicle -2.73826e-014 3.89618e-014
lhumerus -32.2488 -15.6116 106.412
lradius 76.9818
lwrist -40.2914
lhand -23.0255 37.1565
lfingers 7.12502
lthumb 3.41852 67.1089
rfemur -28.4224 -6.01887 10.7831
rtibia 33.3244
rfoot -12.0445 -15.8046
rtoes -2.47262
lfemur 0.914912 0.0988047 -33.9504
ltibia 27.5375
lfoot -23.9039 -12.6972
ltoes -21.1332
376
root 15.0514 15.729 1.49637 -33.2891 -75.24 32.1471
lowerback 8.6055 -2.73672 -9.54589
upperback -4.02836 -5.19957 -3.02275
thorax -8.63142 -2.11735 2.91296
lowerneck -1.12838 -5.10941 -10.6619
upperneck 6.32535 -7.82883 16.0803
head 3.09725 -3.8037 6.40567
rclavicle -8.29926e-015 -1.47101e-014
rhumerus -22.7298 -15.9428 -68.2508
rradius 78.3331
rwrist 2.73885
rhand -4.70156 46.694
rfingers 7.12502
rthumb 21.0801 17.8198
lclavicle -8.29926e-015 -1.47101e-014
lhumerus -32.2782 -14.4915 105.954
lradius 75.4151
lwrist -41.2046
lhand -22.888 35.1666
lfingers 7.12502
lthumb 3.55127 65.1168
rfemur -28.2616 -5.20416 12.5605
rtibia 33.1749
rfoot -12.2701 -14.9846
rtoes 2.53819
lfemur 0.704576 0.35016 -32.7045
ltibia 28.3998
lfoot -24.4005 -11.6079
ltoes -21.7462
377
root 14.8556 15.7344 1.48267 -32.182 -76.884 31.1643
lowerback 8.00275 -2.78549 -8.33939
upperback -4.29098 -5.05632 -2.89785
thorax -8.65463 -2.10755 2.33462
lowerneck -1.41609 -4.75877 -10.4117
upperneck 7.01127 -7.4342 16.0925
head 3.28178 -3.58204 6.38254
rclavicle 2.10215e-014 -3.45885e-014
rhumerus -22.3445 -14.946 -69.3087
rradius 79.0001
rwrist 3.07921
rhand -4.53999 46.079
rfingers 7.12502
rthumb 21.2353 17.2222
lclavicle 2.10215e-014 -3.45885e-014
lhumerus -32.5011 -13.6975 105.177
lradius 74.0448
lwrist -41.6953
lhand -23.1186 34.9427
lfingers 7.12502
lthumb 3.3286 64.8964
rfemur -27.8704 -3.80203 14.0718
rtibia 33.0927
rfoot -13.0098 -16.0286
rtoes 0.591648
lfemur 0.749379 0.542638 -31.5994
ltibia 29.396
lfoot -24.8914 -10.1953
ltoes -23.0184
